# xmcd
#
# Track frame offsets:
#   150
#   16425
#   35870
#   47513
#   62165
#   80415
#   92225
#   106362
#   123167
#   134023
#   147073
#   163547
#   176095
#   190911
#   207535
#
# Disc length: 3022 seconds
#
# Revision: 0
# Processed by: cddbd v1.5.2PL0 Copyright (c) Steve Scherf et al.
# Submitted via: GXTranscoder 2.0.1939
#
DISCID=d90bcc0f
DTITLE=Amy Winehouse - back to black
DYEAR=1900
DGENRE=R and B
TTITLE0=Rehab
TTITLE1=You know I'm good
TTITLE2=Me and Mr. Jones
TTITLE3=Just friends
TTITLE4=Back to black
TTITLE5=Love is a losing game
TTITLE6=Tears dry on their own
TTITLE7=Wake up alone
TTITLE8=Some unholy war
TTITLE9=He can only hold her
TTITLE10=Rehab (live)
TTITLE11=Love is a losing game (live)
TTITLE12=Tears dry on their own (live)
TTITLE13=Take the box (live)
TTITLE14=Valerie (live)
EXTD=
EXTT0=
EXTT1=
EXTT2=
EXTT3=
EXTT4=
EXTT5=
EXTT6=
EXTT7=
EXTT8=
EXTT9=
EXTT10=
EXTT11=
EXTT12=
EXTT13=
EXTT14=
PLAYORDER=
